# xmcd
#
# Track frame offsets:
#	150
#	24414
#	44753
#	68678
#	89030
#	104317
#	126709
#	150864
#	172541
#	194137
#
# Disc length: 2887 seconds
#
# Revision: 1
# Processed by: cddbd v1.5.2PL0 Copyright (c) Steve Scherf et al.
# Submitted via: EZCDAudioConverter 8.0.2.1
#
DISCID=850b450a
DTITLE=Various Artist - Trên Dòng Sông Quê Hương
DYEAR=1998
DGENRE=Contemporary Pop
TTITLE0=Thanh Tuyền - Nụ hoa nhỏ
TTITLE1=Bạch Vân - Duyên tình
TTITLE2=Thiên Trang - Cay đắng bờ môi
TTITLE3=Tiến Biên - Trên Dòng Sông Quê Hương
TTITLE4=Thiên Trang - Còn thương rau đắng mọc sau hè
TTITLE5=Bạch Vân - Tình đến rồi đi
TTITLE6=Tiến Biên - Thói đời
TTITLE7=Thiên Trang - Chuyện hợp tan
TTITLE8=Bạch Vân - Gõ cửa
TTITLE9=Tiến Biên - Cỏ úa
EXTD=
EXTT0=
EXTT1=
EXTT2=
EXTT3=
EXTT4=
EXTT5=
EXTT6=
EXTT7=
EXTT8=
EXTT9=
PLAYORDER=
